PathFileType	4	(X/Y/Z)	/Users/itak/Documents/Research/Walk-IL/dataset/trc/00106_00007.trc
DataRate	CameraRate	NumFrames	NumMarkers	Units	OrigDataRate	OrigDataStartFrame	OrigNumFrames
100.000000	100.000000	4	53	mm	100.000000	461	527
Frame#	Time	RPSI			LPSI			L3			STRN			T10			C7			CLAV			RBAK			LBAK			LSHO			LUPA			LAEL			LAOL			LWTS			LWPS			LFRA			LIFD			LHPS			LHTS			RSHO			RUPA			RAEL			RAOL			RWTS			RWPS			RFRA			RIFD			RHTS			RHPS			RBHD			LFHD			RFHD			LBHD			LHIP			RHIP			RASI			LASI			LKNE			LTHI			LANK			LTIP			LTOE			LMT1			LMT5			LHEE			RKNE			RTHI			RANK			RTIP			RTOE			RMT1			RMT5			RHEE			
		X1	Y1	Z1	X2	Y2	Z2	X3	Y3	Z3	X4	Y4	Z4	X5	Y5	Z5	X6	Y6	Z6	X7	Y7	Z7	X8	Y8	Z8	X9	Y9	Z9	X10	Y10	Z10	X11	Y11	Z11	X12	Y12	Z12	X13	Y13	Z13	X14	Y14	Z14	X15	Y15	Z15	X16	Y16	Z16	X17	Y17	Z17	X18	Y18	Z18	X19	Y19	Z19	X20	Y20	Z20	X21	Y21	Z21	X22	Y22	Z22	X23	Y23	Z23	X24	Y24	Z24	X25	Y25	Z25	X26	Y26	Z26	X27	Y27	Z27	X28	Y28	Z28	X29	Y29	Z29	X30	Y30	Z30	X31	Y31	Z31	X32	Y32	Z32	X33	Y33	Z33	X34	Y34	Z34	X35	Y35	Z35	X36	Y36	Z36	X37	Y37	Z37	X38	Y38	Z38	X39	Y39	Z39	X40	Y40	Z40	X41	Y41	Z41	X42	Y42	Z42	X43	Y43	Z43	X44	Y44	Z44	X45	Y45	Z45	X46	Y46	Z46	X47	Y47	Z47	X48	Y48	Z48	X49	Y49	Z49	X50	Y50	Z50	X51	Y51	Z51	X52	Y52	Z52	X53	Y53	Z53	

462	4.61	545.897216796875	1117.8408203125	-220.498291015625	541.2389526367188	1120.248779296875	-355.5397338867188	534.7616577148438	1150.027587890625	-288.3786315917969	729.3060302734375	1367.687622070312	-290.2638854980469	486.3206481933594	1292.484619140625	-281.1560974121094	488.1687316894531	1588.238891601562	-289.3934326171875	680.1253662109375	1498.4736328125	-289.795654296875	453.7952880859375	1396.9150390625	-204.4762725830078	478.23388671875	1569.671508789062	-390.6105651855469	564.0068969726562	1565.723754882812	-461.9921875	549.9983520507812	1434.214111328125	-534.0196533203125	575.6622924804688	1216.971069335938	-560.3977661132812	513.230224609375	1199.43701171875	-500.2471923828125	697.0126953125	967.8018798828125	-528.4946899414062	615.7166748046875	935.9117431640625	-551.0855102539062	599.9974365234375	1102.412109375	-567.718505859375	721.4081420898438	773.9556884765625	-507.2623901367188	649.2601318359375	862.6658935546875	-554.1397094726562	717.5781860351562	879.169189453125	-541.3399047851562	551.2907104492188	1569.06396484375	-109.0701370239258	544.89990234375	1491.739501953125	-48.05634307861328	572.1870727539062	1197.42578125	-33.84192657470703	571.7509765625	1197.044067382812	-130.2469177246094	752.8880615234375	981.5467529296875	-41.48399353027344	681.0553588867188	951.9500122070312	-15.57437610626221	606.1494140625	1128.356323242188	-18.3188648223877	808.1455078125	794.7451782226562	-65.23611450195312	799.0122680664062	878.8645629882812	-37.0586051940918	733.3751831054688	859.3301391601562	-11.81863784790039	529.1371459960938	1774.06591796875	-215.6245880126953	681.9871826171875	1833.18896484375	-363.7683410644531	688.5101928710938	1849.246337890625	-234.4946136474609	511.9374084472656	1761.99560546875	-349.6820983886719	635.2227172851562	1040.064697265625	-468.3160095214844	681.0956420898438	1027.794189453125	-108.4561462402344	756.033203125	1106.938354492188	-162.3522033691406	739.0962524414062	1114.010620117188	-427.4395141601562	704.2203369140625	539.25537109375	-449.8223876953125	670.30419921875	684.9815673828125	-471.4013366699219	569.1762084960938	35.73786926269531	-457.647216796875	591.9251708984375	293.1139526367188	-481.2865295410156	799.261962890625	36.14020538330078	-393.5118408203125	715.864501953125	41.27643966674805	-363.9012451171875	695.84228515625	33.50637435913086	-480.0536804199219	498.9523620605469	38.03651809692383	-396.4816589355469	663.34521484375	536.4051513671875	-165.6553497314453	695.4417114257812	814.8440551757812	-127.5643920898438	548.74267578125	29.72273635864258	-214.0782623291016	632.766357421875	403.4556579589844	-162.3908081054688	782.1737670898438	40.89834976196289	-262.1346130371094	721.6917724609375	34.0517692565918	-305.4697875976562	681.5816040039062	36.48447799682617	-189.04345703125	492.7587585449219	35.91500854492188	-262.8316040039062	
463	4.62	548.0486450195312	1118.10498046875	-220.9711303710938	543.1384887695312	1120.690185546875	-356.023681640625	536.8519287109375	1150.440795898438	-288.8770446777344	731.369384765625	1367.78125	-291.0195617675781	488.1902465820312	1292.697143554688	-281.8980102539062	490.1950988769531	1588.473510742188	-290.3980407714844	682.2277221679688	1498.630249023438	-290.649658203125	455.8524780273438	1397.232421875	-205.3498229980469	480.3041381835938	1569.804077148438	-391.623046875	566.1309814453125	1565.849487304688	-462.8923034667969	552.6947021484375	1434.393432617188	-535.0510864257812	580.0897827148438	1217.349365234375	-561.730712890625	517.5548706054688	1199.143676757812	-501.8988342285156	704.4525756835938	969.7766723632812	-529.6146240234375	623.6748657226562	936.7865600585938	-552.4812622070312	605.7685546875	1103.067504882812	-569.0618896484375	731.5714111328125	776.2232055664062	-508.5375061035156	658.24853515625	864.034423828125	-555.5252685546875	726.3587646484375	881.54052734375	-542.5104370117188	553.38427734375	1569.47314453125	-110.0309982299805	546.7274169921875	1492.178588867188	-49.03034210205078	571.958984375	1197.703369140625	-35.94439315795898	572.2110595703125	1197.712036132812	-132.3707427978516	750.0225219726562	979.5670776367188	-43.037841796875	677.5657348632812	950.8929443359375	-17.84786415100098	605.05078125	1128.2919921875	-20.44013786315918	802.7168579101562	792.0203247070312	-67.25499725341797	794.6128540039062	876.14794921875	-38.75784683227539	728.5184936523438	857.4977416992188	-14.1107349395752	530.5453491210938	1774.080688476562	-216.6940765380859	683.3071899414062	1833.737060546875	-364.7320251464844	689.7141723632812	1849.686157226562	-235.4219512939453	513.4171752929688	1762.097290039062	-350.7745666503906	636.89306640625	1040.542846679688	-468.9321594238281	683.13671875	1027.743286132812	-109.3420791625977	758.2015380859375	1106.977172851562	-163.2957305908203	740.9364624023438	1114.117919921875	-428.2353515625	702.1737670898438	539.524658203125	-450.5927734375	669.57080078125	685.3511962890625	-472.2038269042969	569.1793212890625	35.66409301757812	-457.7302856445312	590.5873413085938	293.2032775878906	-481.7201538085938	799.2635498046875	36.13427734375	-393.5485229492188	715.8861694335938	41.36726760864258	-363.9745483398438	695.8504638671875	33.428955078125	-480.1597595214844	498.9611206054688	38.01094818115234	-396.5920104980469	665.4635620117188	536.3338623046875	-166.6492462158203	697.472900390625	814.4569091796875	-128.2920227050781	548.8442993164062	29.93445014953613	-214.2202606201172	634.3956298828125	403.4234924316406	-163.2490539550781	782.2910766601562	40.80517578125	-262.2489013671875	721.7770385742188	33.93165588378906	-305.5672912597656	681.6536254882812	36.57038497924805	-189.1732482910156	492.8527221679688	36.13086318969727	-262.9732666015625	
464	4.63	550.101806640625	1118.348999023438	-221.5149383544922	544.9492797851562	1121.087524414062	-356.5653076171875	538.8395385742188	1150.794067382812	-289.4377136230469	733.3724365234375	1367.837524414062	-291.7955627441406	490.0513305664062	1292.917724609375	-282.6545104980469	492.2196350097656	1588.704223632812	-291.3915405273438	684.3053588867188	1498.75439453125	-291.5087585449219	457.8788757324219	1397.56689453125	-206.2261657714844	482.3730163574219	1569.94677734375	-392.6345520019531	568.2513427734375	1565.964233398438	-463.7928161621094	555.3424072265625	1434.56494140625	-536.0829467773438	584.417724609375	1217.735473632812	-563.0538940429688	521.7745971679688	1198.864624023438	-503.5318298339844	711.7959594726562	971.827392578125	-530.69140625	631.5453491210938	937.7151489257812	-553.8253173828125	611.4332275390625	1103.736083984375	-570.3785400390625	741.6182250976562	778.6085205078125	-509.7319946289062	667.167724609375	865.4737548828125	-556.83935546875	735.0191650390625	883.9832153320312	-543.6177368164062	555.4898071289062	1569.878662109375	-111.000373840332	548.569091796875	1492.630004882812	-49.99706649780273	571.7000122070312	1198.014282226562	-37.95925140380859	572.5822143554688	1198.3828125	-134.3966674804688	747.1188354492188	977.6700439453125	-44.60210418701172	674.0797119140625	949.919921875	-20.07459259033203	603.9194946289062	1128.267211914062	-22.48963737487793	797.25048828125	789.4237670898438	-69.35523223876953	790.1885986328125	873.5383911132812	-40.51599502563477	723.6714477539062	855.7705078125	-16.40612030029297	531.9774780273438	1774.045532226562	-217.7454071044922	684.5939331054688	1834.283325195312	-365.6902160644531	690.9119262695312	1850.115234375	-236.3583831787109	514.8948974609375	1762.14990234375	-351.8450622558594	638.4696655273438	1040.943359375	-469.5685729980469	685.0571899414062	1027.690795898438	-110.2558822631836	760.2577514648438	1106.994995117188	-164.2194366455078	742.6881713867188	1114.187255859375	-429.0561218261719	700.1283569335938	539.7410888671875	-451.3674011230469	668.799072265625	685.66455078125	-473.0347595214844	569.1792602539062	35.61397933959961	-457.7704467773438	589.245361328125	293.3057861328125	-482.1250305175781	799.2738647460938	36.11824417114258	-393.5732421875	715.9068603515625	41.43955230712891	-364.0303955078125	695.8514404296875	33.37100982666016	-480.2371826171875	498.9679870605469	37.99318695068359	-396.6477966308594	667.5087280273438	536.27294921875	-167.6165008544922	699.450439453125	814.1652221679688	-129.043701171875	548.9342041015625	30.13652610778809	-214.3480682373047	635.9561767578125	403.3924560546875	-164.0851593017578	782.4097900390625	40.71744537353516	-262.3555297851562	721.8612060546875	33.80739974975586	-305.6593017578125	681.7304077148438	36.66339874267578	-189.3099212646484	492.9429626464844	36.34536743164062	-263.1053466796875	
465	4.64	552.0526733398438	1118.571411132812	-222.1264801025391	546.6776123046875	1121.435424804688	-357.1583251953125	540.7306518554688	1151.079956054688	-290.0557556152344	735.3239135742188	1367.850341796875	-292.5959777832031	491.8947448730469	1293.13623046875	-283.4380798339844	494.2431335449219	1588.919189453125	-292.3811645507812	686.3558959960938	1498.829956054688	-292.3687744140625	459.8649291992188	1397.898559570312	-207.1147918701172	484.4415893554688	1570.088012695312	-393.649658203125	570.3706665039062	1566.052978515625	-464.6929016113281	557.947998046875	1434.71435546875	-537.1119995117188	588.6442260742188	1218.110229492188	-564.367919921875	525.882568359375	1198.588134765625	-505.1472778320312	719.026123046875	973.9321899414062	-531.7175903320312	639.3128051757812	938.681640625	-555.1130981445312	616.984130859375	1104.403686523438	-571.6695556640625	751.5136108398438	781.1170043945312	-510.8479309082031	675.9977416992188	866.968994140625	-558.07666015625	743.5379638671875	886.472900390625	-544.65673828125	557.5963745117188	1570.257690429688	-111.980712890625	550.41650390625	1493.068481445312	-50.95944976806641	571.4169921875	1198.332641601562	-39.87071990966797	572.856689453125	1199.028686523438	-136.3138732910156	744.207763671875	975.8513793945312	-46.17641448974609	670.6375122070312	949.0160522460938	-22.23286437988281	602.7659912109375	1128.257934570312	-24.45215606689453	791.798828125	786.9572143554688	-71.54071807861328	785.78564453125	871.0389404296875	-42.33877182006836	718.8873901367188	854.1416625976562	-18.69086265563965	533.4310913085938	1773.956176757812	-218.7766876220703	685.8515625	1834.815307617188	-366.6442260742188	692.1092529296875	1850.52001953125	-237.3052673339844	516.3712768554688	1762.145141601562	-352.8905639648438	639.9317626953125	1041.253295898438	-470.22900390625	686.882568359375	1027.630859375	-111.1917419433594	762.2193603515625	1106.986450195312	-165.1377105712891	744.3450927734375	1114.196533203125	-429.9029846191406	698.1030883789062	539.8955078125	-452.152587890625	667.9686279296875	685.90087890625	-473.9225158691406	569.1744384765625	35.57254028320312	-457.7821044921875	587.9201049804688	293.4164428710938	-482.5156555175781	799.2908935546875	36.09467315673828	-393.5868530273438	715.9243774414062	41.49711990356445	-364.0749206542969	695.84521484375	33.3265266418457	-480.2974548339844	498.969970703125	37.97204208374023	-396.6646423339844	669.4594116210938	536.21484375	-168.546142578125	701.4016723632812	813.9954223632812	-129.8464050292969	549.007568359375	30.32028007507324	-214.4570159912109	637.4351806640625	403.3583374023438	-164.8851013183594	782.5222778320312	40.63875579833984	-262.4499206542969	721.9375610351562	33.68201065063477	-305.7432556152344	681.804931640625	36.75733184814453	-189.4443817138672	493.0235595703125	36.54826354980469	-263.2257385253906	
